<svg xmlns="http://www.w3.org/2000/svg" width="1280" height="640" viewBox="0 0 1280 640">
  <defs>
    <linearGradient id="bg" x1="0" y1="0" x2="1" y2="1">
      <stop offset="0%" stop-color="#030b05"/>
      <stop offset="100%" stop-color="#051208"/>
    </linearGradient>
    <linearGradient id="accent" x1="0" y1="0" x2="1" y2="0">
      <stop offset="0%" stop-color="#22c55e"/>
      <stop offset="100%" stop-color="#16a34a"/>
    </linearGradient>
    <filter id="glow">
      <feGaussianBlur stdDeviation="5" result="blur"/>
      <feMerge><feMergeNode in="blur"/><feMergeNode in="SourceGraphic"/></feMerge>
    </filter>
  </defs>
  <rect width="1280" height="640" fill="url(#bg)"/>
  <ellipse cx="1000" cy="300" rx="380" ry="320" fill="#16a34a" fill-opacity="0.07"/>
  <ellipse cx="150" cy="120" rx="200" ry="180" fill="#22c55e" fill-opacity="0.04"/>
  <line x1="1020" y1="520" x2="1020" y2="300" stroke="#22c55e" stroke-opacity="0.3" stroke-width="2" filter="url(#glow)"/>
  <line x1="1020" y1="300" x2="880" y2="200" stroke="#22c55e" stroke-opacity="0.25" stroke-width="1.5"/>
  <line x1="1020" y1="300" x2="1160" y2="200" stroke="#22c55e" stroke-opacity="0.25" stroke-width="1.5"/>
  <line x1="1020" y1="380" x2="900" y2="310" stroke="#22c55e" stroke-opacity="0.18" stroke-width="1.5"/>
  <line x1="1020" y1="380" x2="1140" y2="310" stroke="#22c55e" stroke-opacity="0.18" stroke-width="1.5"/>
  <line x1="880" y1="200" x2="820" y2="150" stroke="#22c55e" stroke-opacity="0.15" stroke-width="1"/>
  <line x1="880" y1="200" x2="940" y2="150" stroke="#22c55e" stroke-opacity="0.15" stroke-width="1"/>
  <line x1="1160" y1="200" x2="1100" y2="150" stroke="#22c55e" stroke-opacity="0.15" stroke-width="1"/>
  <line x1="1160" y1="200" x2="1220" y2="150" stroke="#22c55e" stroke-opacity="0.15" stroke-width="1"/>
  <circle cx="1020" cy="300" r="8" fill="#22c55e" filter="url(#glow)"/>
  <circle cx="880" cy="200" r="6" fill="#22c55e" filter="url(#glow)" opacity="0.8"/>
  <circle cx="1160" cy="200" r="6" fill="#22c55e" filter="url(#glow)" opacity="0.8"/>
  <circle cx="900" cy="310" r="5" fill="#22c55e" opacity="0.6"/>
  <circle cx="1140" cy="310" r="5" fill="#22c55e" opacity="0.6"/>
  <circle cx="820" cy="150" r="4" fill="#22c55e" opacity="0.5"/>
  <circle cx="940" cy="150" r="4" fill="#22c55e" opacity="0.5"/>
  <circle cx="1100" cy="150" r="4" fill="#22c55e" opacity="0.5"/>
  <circle cx="1220" cy="150" r="4" fill="#22c55e" opacity="0.5"/>
  <text x="1020" y="285" fill="#22c55e" font-family="monospace" font-size="11" text-anchor="middle" opacity="0.9">ROOT</text>
  <text x="880" y="186" fill="#22c55e" font-family="monospace" font-size="10" text-anchor="middle" opacity="0.7">Memory</text>
  <text x="1160" y="186" fill="#22c55e" font-family="monospace" font-size="10" text-anchor="middle" opacity="0.7">Reasoning</text>
  <text x="900" y="298" fill="#22c55e" font-family="monospace" font-size="9" text-anchor="middle" opacity="0.5">Code</text>
  <text x="1140" y="298" fill="#22c55e" font-family="monospace" font-size="9" text-anchor="middle" opacity="0.5">Action</text>
  <text x="88" y="198" fill="#94a3b8" font-family="Inter,-apple-system,sans-serif" font-size="22" font-weight="500" letter-spacing="3">SAMOTECH</text>
  <text x="88" y="296" fill="#ffffff" font-family="Inter,-apple-system,sans-serif" font-size="88" font-weight="800" letter-spacing="-2">Skills Tree</text>
  <rect x="88" y="314" width="200" height="4" rx="2" fill="url(#accent)"/>
  <text x="88" y="375" fill="#4ade80" font-family="Inter,-apple-system,sans-serif" font-size="24" font-weight="400">The AI Agent Skill OS</text>
  <text x="88" y="415" fill="#475569" font-family="Inter,-apple-system,sans-serif" font-size="20">515+ skills · 16 categories · Versioned · Benchmarked</text>
  <rect x="88" y="467" width="110" height="38" rx="19" fill="#16a34a" fill-opacity="0.12" stroke="#22c55e" stroke-opacity="0.3" stroke-width="1"/>
  <text x="143" y="492" fill="#22c55e" font-family="Inter,sans-serif" font-size="15" font-weight="500" text-anchor="middle">515+ Skills</text>
  <rect x="214" y="467" width="124" height="38" rx="19" fill="#16a34a" fill-opacity="0.1" stroke="#22c55e" stroke-opacity="0.25" stroke-width="1"/>
  <text x="276" y="492" fill="#22c55e" font-family="Inter,sans-serif" font-size="15" font-weight="500" text-anchor="middle">16 Categories</text>
  <rect x="354" y="467" width="108" height="38" rx="19" fill="#16a34a" fill-opacity="0.1" stroke="#22c55e" stroke-opacity="0.25" stroke-width="1"/>
  <text x="408" y="492" fill="#22c55e" font-family="Inter,sans-serif" font-size="15" font-weight="500" text-anchor="middle">v2.0</text>
  <rect x="478" y="467" width="150" height="38" rx="19" fill="#16a34a" fill-opacity="0.1" stroke="#22c55e" stroke-opacity="0.25" stroke-width="1"/>
  <text x="553" y="492" fill="#22c55e" font-family="Inter,sans-serif" font-size="15" font-weight="500" text-anchor="middle">10+ Languages</text>
  <text x="88" y="570" fill="#22c55e" font-family="Inter,sans-serif" font-size="32" font-weight="800">515+</text>
  <text x="88" y="596" fill="#475569" font-family="Inter,sans-serif" font-size="14">Skills</text>
  <text x="200" y="570" fill="#22c55e" font-family="Inter,sans-serif" font-size="32" font-weight="800">16</text>
  <text x="200" y="596" fill="#475569" font-family="Inter,sans-serif" font-size="14">Categories</text>
  <text x="290" y="570" fill="#22c55e" font-family="Inter,sans-serif" font-size="32" font-weight="800">10+</text>
  <text x="290" y="596" fill="#475569" font-family="Inter,sans-serif" font-size="14">Languages</text>
</svg>